PathFileType	4	(X/Y/Z)	/Users/niels/Desktop/University/Third Semester/Perception and Action/Exam/Gymnastics Motion Tracking/Code for Gym Tracking/Analyzed Data/Webcam_Backflip/id1_7_trajectory_Sports2D/id1_7_trajectory_Sports2D_px_person00.trc
DataRate	CameraRate	NumFrames	NumMarkers	Units	OrigDataRate	OrigDataStartFrame	OrigNumFrames
29.71698113207547	29.71698113207547	11	22	m	29.71698113207547	26	106
Frame#	Time	Hip			RHip			RKnee			RAnkle			RBigToe			RSmallToe			RHeel			LHip			LKnee			LAnkle			LBigToe			LSmallToe			LHeel			Neck			Head			Nose			RShoulder			RElbow			RWrist			LShoulder			LElbow			LWrist		
		X1	Y1	Z1	X2	Y2	Z2	X3	Y3	Z3	X4	Y4	Z4	X5	Y5	Z5	X6	Y6	Z6	X7	Y7	Z7	X8	Y8	Z8	X9	Y9	Z9	X10	Y10	Z10	X11	Y11	Z11	X12	Y12	Z12	X13	Y13	Z13	X14	Y14	Z14	X15	Y15	Z15	X16	Y16	Z16	X17	Y17	Z17	X18	Y18	Z18	X19	Y19	Z19	X20	Y20	Z20	X21	Y21	Z21	X22	Y22	Z22
26	0.8749206349206348	0.968847346070119	-0.562055938158347	0.0	0.958009378865583	-0.5612580242027743	0.0	0.9543238675788713	-0.6882503308953496	0.0	0.9138941393228031	-0.8053789171875887	0.0	0.9337102967873421	-0.8389145395436677	0.0	0.9291446728793923	-0.8394512244434071	0.0	0.9025609745682438	-0.8160553058247016	0.0	0.9804388978182578	-0.5659676801615279	0.0	0.9792537661965621	-0.6890485726891247	0.0	0.9659915952001962	-0.8070115698551769	0.0	0.9958145970691488	-0.8353751274077538	0.0	0.9934984940615185	-0.8305279399976465	0.0	0.9428724940538926	-0.8179068401533377	0.0	1.0850075994984298	-0.44571873671250783	0.0	1.1343018242037328	-0.4054990512786991	0.0	1.1308332160898644	-0.43994198808936424	0.0	1.0669601539049107	-0.45638294127242374	0.0	1.1400203497856398	-0.482389325633785	0.0	1.214818512179669	-0.48006730401829967	0.0	1.0838671560267281	-0.4565168570651131	0.0	1.1478057235715056	-0.47770055852268295	0.0	1.2147899751697626	-0.47635109588669244	0.0
27	0.9085714285714285	0.9720560770142672	-0.6102142849863617	0.0	0.9600347220189214	-0.6107232885565393	0.0	0.963274044286754	-0.7364609427527188	0.0	0.9248100936572143	-0.8513534873741356	0.0	0.9436028320494806	-0.8790203499965906	0.0	0.9387604837863424	-0.8801067554667515	0.0	0.9151198593124786	-0.8613342041031634	0.0	0.9851982610538768	-0.6138664517134421	0.0	0.9931602257135695	-0.7347567915380399	0.0	0.9811453079676818	-0.8506791618201363	0.0	1.0081837547029877	-0.8747145515972998	0.0	1.0075907549971757	-0.870080417957093	0.0	0.9607660284887646	-0.860587244698999	0.0	1.0640456837426766	-0.4690210899869396	0.0	1.1025498545385752	-0.4223051070659174	0.0	1.1066270675563368	-0.4549941187850976	0.0	1.046678535184295	-0.4827712089728491	0.0	1.1275309696977447	-0.4818390573586838	0.0	1.1968434069139626	-0.4580758329338441	0.0	1.067497839477061	-0.4810375303327559	0.0	1.1381247782846085	-0.4788759996050256	0.0	1.203805344483801	-0.46027192838505254	0.0
28	0.9422222222222221	0.9757644534049641	-0.6521997388803566	0.0	0.9624741337072071	-0.6538265821112433	0.0	0.9700849522081834	-0.777858967082737	0.0	0.9281302561127994	-0.8872620641660363	0.0	0.9473728498626317	-0.9105091198699675	0.0	0.9409250994084659	-0.9117134803138367	0.0	0.9196949761432311	-0.895487324307667	0.0	0.9903406414462618	-0.6559886697654229	0.0	1.0046298149246886	-0.7740580523190567	0.0	0.9893824233146141	-0.8853353257580924	0.0	1.0131718811797943	-0.9061195178771594	0.0	1.0143784959333648	-0.901557453693223	0.0	0.9729824318544663	-0.8934611620921553	0.0	1.044768502513062	-0.4938513517278152	0.0	1.072975684624092	-0.4425560337328029	0.0	1.0832700017252335	-0.47278233820473115	0.0	1.027814219978499	-0.5095507769999461	0.0	1.108113450451579	-0.4836949931214236	0.0	1.167137863978955	-0.4410823079905885	0.0	1.0524759176079013	-0.5068107985735693	0.0	1.123196569689613	-0.48409760397569757	0.0	1.1844635783237887	-0.45155946957279136	0.0
29	0.9758730158730158	0.9785938878813757	-0.6842334718335119	0.0	0.9642013996022116	-0.6867411591887967	0.0	0.9758333793066012	-0.8089563342659037	0.0	0.9270106309767093	-0.9114494749054906	0.0	0.9466753330453321	-0.932084960544297	0.0	0.9385751712098909	-0.9330480345353702	0.0	0.9192995689235925	-0.9175361861674682	0.0	0.994118431591827	-0.6883932089060859	0.0	1.0129768523373561	-0.8034265321461086	0.0	0.9925642396023343	-0.9089720296961261	0.0	1.0128241536538432	-0.9279357542320025	0.0	1.0157283644438475	-0.9234245144563806	0.0	0.9796686045866937	-0.9153782469687511	0.0	1.0285934820436875	-0.5159646143472201	0.0	1.0482828868350265	-0.4619125886446059	0.0	1.0627560025441178	-0.48977520004443975	0.0	1.0117105059689615	-0.532663124146002	0.0	1.085394664255535	-0.4869494809573363	0.0	1.1322527772494686	-0.42996198836448263	0.0	1.0397392133682306	-0.5296389405254701	0.0	1.1065723204961244	-0.4917313683174393	0.0	1.1622079433388544	-0.4490023435537832	0.0
30	1.0095238095238095	0.9797293922315762	-0.7037798622640553	0.0	0.9645786076099102	-0.706957369029692	0.0	0.9816776074273924	-0.8273814086072352	0.0	0.9242440970423739	-0.9230386474856501	0.0	0.9435453857969189	-0.9429857617080538	0.0	0.934222647348405	-0.9434204623857605	0.0	0.9165270798370918	-0.9272285860777891	0.0	0.9956676726572058	-0.7083151975944365	0.0	1.018985143895207	-0.820332986154189	0.0	0.9926822616959226	-0.920220335850784	0.0	1.00957171445415	-0.938950993157254	0.0	1.0138933701751383	-0.934454363667018	0.0	0.981826431605664	-0.9253726244943499	0.0	1.015982284949659	-0.53140054830313	0.0	1.0296549330536184	-0.47618659778693667	0.0	1.0462840252639054	-0.5024663107282127	0.0	0.9988250959658757	-0.5484810883621637	0.0	1.06288262754659	-0.48946570899640574	0.0	1.0988211723913868	-0.4235777179548047	0.0	1.0295244760492384	-0.5456159442973894	0.0	1.0911924574585352	-0.49864557083373834	0.0	1.141725428777222	-0.44930312108822135	0.0
31	1.043174603174603	0.9790410315393715	-0.7100809214513868	0.0	0.9635052699552598	-0.713746180348017	0.0	0.988132765240196	-0.8322338466179924	0.0	0.9214999512360265	-0.9220929760959001	0.0	0.9400081673519484	-0.943123607213565	0.0	0.9297988854290241	-0.9428921797727183	0.0	0.9129367702997927	-0.9250040513877492	0.0	0.9950956833176092	-0.7147841639259621	0.0	1.0241913003797372	-0.8237643589406713	0.0	0.9912632210025237	-0.9187659584352643	0.0	1.0055522204400924	-0.9386826378154864	0.0	1.010895395927079	-0.9340977164935245	0.0	0.980837099302843	-0.923131282990259	0.0	1.0065503802294182	-0.5374329892709239	0.0	1.0168012648632496	-0.4822707824395449	0.0	1.0342050767768631	-0.508020359392837	0.0	0.9888002038500537	-0.5545771623560917	0.0	1.0431626781168026	-0.4887887731283709	0.0	1.0717271737178107	-0.41914088411742056	0.0	1.0215835633254462	-0.5520033543513981	0.0	1.0789265392492298	-0.5014676093956301	0.0	1.1261013442809258	-0.44869624361135957	0.0
32	1.0768253968253967	0.9770002343289131	-0.7041137822480025	0.0	0.9613770573324818	-0.7081237142449863	0.0	0.9949765566536679	-0.8242688078924352	0.0	0.9196353078367557	-0.9099066030484416	0.0	0.9377918522345673	-0.9334717280815202	0.0	0.9268311694989247	-0.9325999464387454	0.0	0.9094811899783245	-0.9122497884808662	0.0	0.9930884877281092	-0.7086652915309347	0.0	1.029640674129369	-0.8145111794953289	0.0	0.9894405609369148	-0.90579260832906	0.0	1.002405178115483	-0.9279573526266596	0.0	1.0083513728562192	-0.9231378355041014	0.0	0.9781267317274586	-0.9096885274577744	0.0	0.9994601300850035	-0.5330740265777515	0.0	1.0084601299798774	-0.4787196685717117	0.0	1.026032978577737	-0.5047954621045608	0.0	0.9808478155033514	-0.5501858413092499	0.0	1.0275184263397725	-0.4829065968589621	0.0	1.0530645924270967	-0.41330554808977876	0.0	1.0154273841995647	-0.5477895866602737	0.0	1.0704141429234866	-0.49780587516971314	0.0	1.1164930474558743	-0.44416611940199024	0.0
33	1.1104761904761904	0.9744473111375466	-0.6881833953455951	0.0	0.9589340500171343	-0.6924440134292852	0.0	1.0014782683295425	-0.8058821165021443	0.0	0.9189802503424631	-0.8891861411412924	0.0	0.9379167264446705	-0.9162962827859975	0.0	0.9261630871527571	-0.9149068172200975	0.0	0.9067883400756985	-0.8916044589863394	0.0	0.9905338328852769	-0.6923050347602616	0.0	1.035304544528448	-0.7951969224895561	0.0	0.9880987852631145	-0.88425862980966	0.0	1.001376270228938	-0.909344086938401	0.0	1.0074916153454738	-0.9041120928851788	0.0	0.9751247784442469	-0.8878857868782241	0.0	0.9938081300199556	-0.5192010241398501	0.0	1.0029398362136086	-0.46592589498021464	0.0	1.020594082480893	-0.492690332104992	0.0	0.9741751509617242	-0.5362957118051563	0.0	1.0159892486218558	-0.4708046173640091	0.0	1.0422594425943559	-0.40339132324384613	0.0	1.010535115367598	-0.5338288509840335	0.0	1.0651609176465673	-0.4868439312373953	0.0	1.1122429896413262	-0.4340750395320772	0.0
34	1.1441269841269839	0.9722497351275661	-0.6653802685927819	0.0	0.9569704305466077	-0.669841739222063	0.0	1.0065877230038902	-0.7806854948730056	0.0	0.9194169932411388	-0.8638164422584047	0.0	0.9402760121875278	-0.8948775940395243	0.0	0.9276620315492052	-0.8931438477815181	0.0	0.9051618921679334	-0.8668351417169124	0.0	0.9882681572295736	-0.6689386628415924	0.0	1.0404352615630703	-0.7696207574939475	0.0	0.987846493044602	-0.8583921593682685	0.0	1.0032517622192283	-0.8867108816836667	0.0	1.0090649492344288	-0.8808608832586006	0.0	0.9731116003423017	-0.8619493637797748	0.0	0.9888910304320485	-0.4981397637731165	0.0	0.9986380847402844	-0.445752618046989	0.0	1.016509417531361	-0.4730718644412511	0.0	0.968289634561445	-0.5152246492317251	0.0	1.0077573284518453	-0.4525660344966134	0.0	1.0370219806084988	-0.38794805751378053	0.0	1.0064759028862587	-0.5124128185475328	0.0	1.0619700448265577	-0.46921036654520454	0.0	1.1114777708802672	-0.41824946318598294	0.0
35	1.1777777777777776	0.9710069320370851	-0.6390159690851049	0.0	0.9560266843908035	-0.6436885948707033	0.0	1.0091673220453476	-0.7526884789935603	0.0	0.9205597835154669	-0.838083463993557	0.0	0.9438286616373112	-0.8728476241681781	0.0	0.9304558596794853	-0.8709691849832955	0.0	0.9046493879167657	-0.8421030694162824	0.0	0.9868884473344801	-0.6420049506645712	0.0	1.0442579001772576	-0.741653189029624	0.0	0.9891165766223203	-0.8324534559468576	0.0	1.0081072968254319	-0.8640179933172156	0.0	1.0132172045474175	-0.8573256938740774	0.0	0.9731149250839444	-0.8362426524776259	0.0	0.984312461812262	-0.47281007377604106	0.0	0.9944498825521659	-0.420795957030859	0.0	1.0127160527173211	-0.4482672718253291	0.0	0.963095977092978	-0.48983404332754826	0.0	1.001751023212091	-0.42909752816767077	0.0	1.0345302059903054	-0.3666661152739669	0.0	1.0029198121469813	-0.4864761274785595	0.0	1.0595346610688718	-0.44649873214051	0.0	1.1119817708365982	-0.39766371764928066	0.0
36	1.2114285714285713	0.9708934032305893	-0.6120827704048574	0.0	0.9562121193146009	-0.6170564884098033	0.0	1.008462835581366	-0.7254043981551006	0.0	0.922169438247751	-0.8155052656639292	0.0	0.9475024427854735	-0.8532609280441911	0.0	0.9336517819808341	-0.8514332467620864	0.0	0.9053335243011085	-0.8208071326868333	0.0	0.9866138835709024	-0.6145469702014815	0.0	1.0463334263158268	-0.7144394799432594	0.0	0.9922998718204309	-0.8095088617293269	0.0	1.0151902015964913	-0.8441066293449317	0.0	1.019464865364519	-0.8363827319637445	0.0	0.9758731702081924	-0.8139815209262393	0.0	0.9799352132180625	-0.4460132496536022	0.0	0.9898660503121773	-0.39375577151437136	0.0	1.0086365752415651	-0.42095459877163444	0.0	0.9587313258657317	-0.4628935809161249	0.0	0.9970609484505625	-0.40192418054783846	0.0	1.0323284967350377	-0.34030820898865227	0.0	0.9996084823177105	-0.4589083330908277	0.0	1.056890541828506	-0.4208180899545805	0.0	1.111914349099634	-0.373960070068413	0.0
